PathFileType	4	(X/Y/Z)	C:\Users\italobelli\Desktop\GitHub\PTbot_officialCBL\Personal_Results\FLX02_noisy1.trc
DataRate	CameraRate	NumFrames	NumMarkers	Units	OrigDataRate	OrigDataStartFrame	OrigNumFrames
106.125000	106.125000	51	9	m	106.125000	744	850
Frame#	Time		gu		centelbow		EpL		centpxt8		centijc7		ij		ts		aa		ai
			X1	Y1	Z1	X2	Y2	Z2	X3	Y3	Z3	X4	Y4	Z4	X5	Y5	Z5	X6	Y6	Z6	X7	Y7	Z7	X8	Y8	Z8	X9	Y9	Z9

744	7.0012	-0.080196	-0.0095784	0.16764	-0.13223	-0.24444	0.18503	-0.11143	-0.24187	0.20952	-0.046816	-0.15316	-0.008669	-0.046816	0.031938	-0.008669	0	0	0	-0.13548	0.023844	0.047043	-0.1164	0.025839	0.16476	-0.14372	-0.089049	0.055573
745	7.0106	-0.080137	-0.0096052	0.16769	-0.13254	-0.24453	0.18499	-0.11178	-0.24196	0.20949	-0.046816	-0.15316	-0.008669	-0.046816	0.031938	-0.008669	0	0	0	-0.13544	0.023867	0.047082	-0.11636	0.025834	0.1648	-0.14368	-0.089017	0.055595
746	7.02	-0.080078	-0.0096319	0.16773	-0.13285	-0.24461	0.18496	-0.11213	-0.24206	0.20947	-0.046816	-0.15316	-0.008669	-0.046816	0.031938	-0.008669	0	0	0	-0.1354	0.023888	0.047123	-0.11631	0.025829	0.16484	-0.14365	-0.088987	0.055618
747	7.0294	-0.080019	-0.0096584	0.16778	-0.13315	-0.24469	0.18493	-0.11247	-0.24215	0.20944	-0.046816	-0.15316	-0.008669	-0.046816	0.031938	-0.008669	0	0	0	-0.13535	0.023908	0.047165	-0.11626	0.025824	0.16488	-0.14361	-0.088958	0.055642
748	7.0389	-0.079959	-0.0096848	0.16783	-0.13344	-0.24478	0.18489	-0.11279	-0.24224	0.20942	-0.046816	-0.15316	-0.008669	-0.046816	0.031938	-0.008669	0	0	0	-0.13531	0.023927	0.047208	-0.11621	0.025818	0.16493	-0.14358	-0.088932	0.055667
749	7.0483	-0.079898	-0.009711	0.16788	-0.13373	-0.24486	0.18486	-0.11311	-0.24233	0.20939	-0.046816	-0.15316	-0.008669	-0.046816	0.031938	-0.008669	0	0	0	-0.13527	0.023946	0.047252	-0.11616	0.025813	0.16497	-0.14355	-0.088908	0.055692
750	7.0577	-0.079837	-0.009737	0.16793	-0.13401	-0.24495	0.18483	-0.11342	-0.24242	0.20937	-0.046816	-0.15316	-0.008669	-0.046816	0.031938	-0.008669	0	0	0	-0.13523	0.023963	0.047298	-0.1161	0.025807	0.16501	-0.14351	-0.088885	0.055718
751	7.0671	-0.079776	-0.0097627	0.16798	-0.13428	-0.24503	0.1848	-0.11372	-0.24251	0.20935	-0.046816	-0.15316	-0.008669	-0.046816	0.031938	-0.008669	0	0	0	-0.13519	0.023979	0.047344	-0.11604	0.025802	0.16506	-0.14348	-0.088865	0.055745
752	7.0766	-0.079714	-0.0097881	0.16803	-0.13455	-0.24511	0.18478	-0.114	-0.2426	0.20932	-0.046816	-0.15316	-0.008669	-0.046816	0.031938	-0.008669	0	0	0	-0.13515	0.023994	0.047392	-0.11598	0.025796	0.1651	-0.14344	-0.088845	0.055773
753	7.086	-0.079652	-0.0098131	0.16808	-0.1348	-0.2452	0.18475	-0.11428	-0.24269	0.2093	-0.046816	-0.15316	-0.008669	-0.046816	0.031938	-0.008669	0	0	0	-0.13511	0.024009	0.04744	-0.11592	0.02579	0.16515	-0.14341	-0.088828	0.055801
754	7.0954	-0.07959	-0.0098378	0.16813	-0.13505	-0.24528	0.18472	-0.11455	-0.24278	0.20928	-0.046816	-0.15316	-0.008669	-0.046816	0.031938	-0.008669	0	0	0	-0.13508	0.024023	0.047489	-0.11585	0.025785	0.16519	-0.14338	-0.088812	0.05583
755	7.1048	-0.079528	-0.0098622	0.16818	-0.1353	-0.24537	0.1847	-0.11481	-0.24287	0.20926	-0.046816	-0.15316	-0.008669	-0.046816	0.031938	-0.008669	0	0	0	-0.13504	0.024035	0.047539	-0.11579	0.025779	0.16524	-0.14334	-0.088797	0.05586
756	7.1143	-0.079465	-0.009886	0.16823	-0.13553	-0.24545	0.18468	-0.11506	-0.24296	0.20924	-0.046816	-0.15316	-0.008669	-0.046816	0.031938	-0.008669	0	0	0	-0.13501	0.024048	0.04759	-0.11572	0.025773	0.16528	-0.14331	-0.088784	0.05589
757	7.1237	-0.079403	-0.0099095	0.16828	-0.13576	-0.24553	0.18465	-0.1153	-0.24305	0.20922	-0.046816	-0.15316	-0.008669	-0.046816	0.031938	-0.008669	0	0	0	-0.13497	0.024059	0.047642	-0.11565	0.025767	0.16533	-0.14328	-0.088772	0.055921
758	7.1331	-0.07934	-0.0099324	0.16833	-0.13598	-0.24562	0.18463	-0.11552	-0.24314	0.2092	-0.046816	-0.15316	-0.008669	-0.046816	0.031938	-0.008669	0	0	0	-0.13494	0.02407	0.047694	-0.11558	0.025762	0.16537	-0.14324	-0.088761	0.055953
759	7.1425	-0.079278	-0.0099549	0.16838	-0.1362	-0.2457	0.18461	-0.11574	-0.24322	0.20918	-0.046816	-0.15316	-0.008669	-0.046816	0.031938	-0.008669	0	0	0	-0.1349	0.02408	0.047747	-0.11551	0.025756	0.16542	-0.14321	-0.088751	0.055985
760	7.1519	-0.079215	-0.0099767	0.16843	-0.1364	-0.24579	0.18459	-0.11595	-0.24331	0.20916	-0.046816	-0.15316	-0.008669	-0.046816	0.031938	-0.008669	0	0	0	-0.13487	0.02409	0.0478	-0.11543	0.02575	0.16547	-0.14318	-0.088742	0.056018
761	7.1614	-0.079153	-0.009998	0.16848	-0.1366	-0.24587	0.18457	-0.11616	-0.2434	0.20915	-0.046816	-0.15316	-0.008669	-0.046816	0.031938	-0.008669	0	0	0	-0.13484	0.024099	0.047854	-0.11536	0.025744	0.16551	-0.14314	-0.088734	0.056052
762	7.1708	-0.079091	-0.010019	0.16853	-0.13679	-0.24595	0.18455	-0.11635	-0.24349	0.20913	-0.046816	-0.15316	-0.008669	-0.046816	0.031938	-0.008669	0	0	0	-0.13481	0.024108	0.047909	-0.11529	0.025738	0.16556	-0.14311	-0.088727	0.056086
763	7.1802	-0.079028	-0.010039	0.16858	-0.13698	-0.24604	0.18454	-0.11653	-0.24357	0.20911	-0.046816	-0.15316	-0.008669	-0.046816	0.031938	-0.008669	0	0	0	-0.13478	0.024116	0.047964	-0.11521	0.025733	0.16561	-0.14308	-0.088721	0.05612
764	7.1896	-0.078967	-0.010058	0.16863	-0.13715	-0.24612	0.18452	-0.1167	-0.24366	0.2091	-0.046816	-0.15316	-0.008669	-0.046816	0.031938	-0.008669	0	0	0	-0.13475	0.024124	0.048019	-0.11513	0.025727	0.16565	-0.14305	-0.088716	0.056155
765	7.1991	-0.078905	-0.010077	0.16868	-0.13732	-0.2462	0.18451	-0.11686	-0.24375	0.20908	-0.046816	-0.15316	-0.008669	-0.046816	0.031938	-0.008669	0	0	0	-0.13472	0.024132	0.048074	-0.11506	0.025721	0.1657	-0.14302	-0.088711	0.056191
766	7.2085	-0.078844	-0.010095	0.16873	-0.13748	-0.24629	0.1845	-0.11702	-0.24383	0.20907	-0.046816	-0.15316	-0.008669	-0.046816	0.031938	-0.008669	0	0	0	-0.13469	0.02414	0.04813	-0.11498	0.025716	0.16574	-0.14298	-0.088707	0.056227
767	7.2179	-0.078783	-0.010112	0.16878	-0.13763	-0.24637	0.18448	-0.11716	-0.24392	0.20906	-0.046816	-0.15316	-0.008669	-0.046816	0.031938	-0.008669	0	0	0	-0.13466	0.024147	0.048186	-0.1149	0.02571	0.16579	-0.14295	-0.088704	0.056264
768	7.2273	-0.078722	-0.010128	0.16883	-0.13777	-0.24645	0.18447	-0.1173	-0.244	0.20905	-0.046816	-0.15316	-0.008669	-0.046816	0.031938	-0.008669	0	0	0	-0.13464	0.024154	0.048242	-0.11482	0.025704	0.16584	-0.14292	-0.088701	0.056301
769	7.2367	-0.078662	-0.010144	0.16888	-0.13791	-0.24654	0.18446	-0.11742	-0.24409	0.20904	-0.046816	-0.15316	-0.008669	-0.046816	0.031938	-0.008669	0	0	0	-0.13461	0.024161	0.048298	-0.11474	0.025699	0.16588	-0.14289	-0.088698	0.056338
770	7.2462	-0.078602	-0.010158	0.16893	-0.13804	-0.24662	0.18445	-0.11754	-0.24417	0.20903	-0.046816	-0.15316	-0.008669	-0.046816	0.031938	-0.008669	0	0	0	-0.13459	0.024168	0.048354	-0.11467	0.025693	0.16593	-0.14286	-0.088696	0.056376
771	7.2556	-0.078543	-0.010172	0.16898	-0.13816	-0.2467	0.18445	-0.11765	-0.24426	0.20902	-0.046816	-0.15316	-0.008669	-0.046816	0.031938	-0.008669	0	0	0	-0.13456	0.024174	0.048411	-0.11459	0.025688	0.16598	-0.14283	-0.088694	0.056415
772	7.265	-0.078485	-0.010185	0.16903	-0.13827	-0.24679	0.18444	-0.11774	-0.24434	0.20901	-0.046816	-0.15316	-0.008669	-0.046816	0.031938	-0.008669	0	0	0	-0.13454	0.024181	0.048467	-0.11451	0.025683	0.16602	-0.1428	-0.088692	0.056453
773	7.2744	-0.078427	-0.010197	0.16908	-0.13837	-0.24687	0.18444	-0.11783	-0.24443	0.209	-0.046816	-0.15316	-0.008669	-0.046816	0.031938	-0.008669	0	0	0	-0.13452	0.024188	0.048523	-0.11443	0.025677	0.16607	-0.14278	-0.08869	0.056493
774	7.2839	-0.07837	-0.010207	0.16912	-0.13847	-0.24695	0.18443	-0.11791	-0.24451	0.20899	-0.046816	-0.15316	-0.008669	-0.046816	0.031938	-0.008669	0	0	0	-0.1345	0.024195	0.048578	-0.11435	0.025672	0.16611	-0.14275	-0.088688	0.056532
775	7.2933	-0.078314	-0.010217	0.16917	-0.13855	-0.24704	0.18443	-0.11798	-0.2446	0.20899	-0.046816	-0.15316	-0.008669	-0.046816	0.031938	-0.008669	0	0	0	-0.13448	0.024202	0.048634	-0.11428	0.025667	0.16616	-0.14272	-0.088686	0.056572
776	7.3027	-0.078258	-0.010226	0.16922	-0.13863	-0.24712	0.18443	-0.11804	-0.24468	0.20898	-0.046816	-0.15316	-0.008669	-0.046816	0.031938	-0.008669	0	0	0	-0.13446	0.024209	0.048689	-0.1142	0.025662	0.1662	-0.14269	-0.088684	0.056613
777	7.3121	-0.078203	-0.010234	0.16927	-0.1387	-0.2472	0.18443	-0.1181	-0.24476	0.20898	-0.046816	-0.15316	-0.008669	-0.046816	0.031938	-0.008669	0	0	0	-0.13444	0.024217	0.048744	-0.11413	0.025657	0.16625	-0.14267	-0.088681	0.056653
778	7.3216	-0.078149	-0.01024	0.16931	-0.13876	-0.24729	0.18443	-0.11814	-0.24485	0.20898	-0.046816	-0.15316	-0.008669	-0.046816	0.031938	-0.008669	0	0	0	-0.13442	0.024225	0.048799	-0.11405	0.025653	0.16629	-0.14264	-0.088678	0.056694
779	7.331	-0.078096	-0.010246	0.16936	-0.13881	-0.24737	0.18443	-0.11817	-0.24493	0.20898	-0.046816	-0.15316	-0.008669	-0.046816	0.031938	-0.008669	0	0	0	-0.1344	0.024233	0.048853	-0.11398	0.025648	0.16633	-0.14262	-0.088675	0.056736
780	7.3404	-0.078044	-0.01025	0.16941	-0.13885	-0.24746	0.18444	-0.1182	-0.24501	0.20897	-0.046816	-0.15316	-0.008669	-0.046816	0.031938	-0.008669	0	0	0	-0.13439	0.024241	0.048907	-0.11391	0.025643	0.16638	-0.14259	-0.088672	0.056777
781	7.3498	-0.077993	-0.010253	0.16945	-0.13889	-0.24754	0.18444	-0.11822	-0.2451	0.20898	-0.046816	-0.15316	-0.008669	-0.046816	0.031938	-0.008669	0	0	0	-0.13437	0.02425	0.04896	-0.11384	0.025639	0.16642	-0.14257	-0.088668	0.056819
782	7.3592	-0.077942	-0.010255	0.1695	-0.13891	-0.24762	0.18445	-0.11823	-0.24518	0.20898	-0.046816	-0.15316	-0.008669	-0.046816	0.031938	-0.008669	0	0	0	-0.13436	0.024259	0.049012	-0.11377	0.025635	0.16646	-0.14254	-0.088663	0.056862
783	7.3687	-0.077893	-0.010255	0.16954	-0.13893	-0.24771	0.18446	-0.11822	-0.24526	0.20898	-0.046816	-0.15316	-0.008669	-0.046816	0.031938	-0.008669	0	0	0	-0.13434	0.024269	0.049064	-0.1137	0.025631	0.16651	-0.14252	-0.088658	0.056904
784	7.3781	-0.077845	-0.010254	0.16959	-0.13894	-0.24779	0.18447	-0.11821	-0.24535	0.20898	-0.046816	-0.15316	-0.008669	-0.046816	0.031938	-0.008669	0	0	0	-0.13433	0.024279	0.049115	-0.11363	0.025627	0.16655	-0.1425	-0.088652	0.056947
785	7.3875	-0.077799	-0.010252	0.16963	-0.13894	-0.24787	0.18448	-0.1182	-0.24543	0.20899	-0.046816	-0.15316	-0.008669	-0.046816	0.031938	-0.008669	0	0	0	-0.13432	0.02429	0.049166	-0.11357	0.025623	0.16659	-0.14248	-0.088645	0.05699
786	7.3969	-0.077753	-0.010249	0.16968	-0.13893	-0.24796	0.18449	-0.11817	-0.24551	0.20899	-0.046816	-0.15316	-0.008669	-0.046816	0.031938	-0.008669	0	0	0	-0.13431	0.024302	0.049215	-0.11351	0.025619	0.16663	-0.14246	-0.088638	0.057033
787	7.4064	-0.077709	-0.010244	0.16972	-0.13891	-0.24804	0.1845	-0.11813	-0.2456	0.209	-0.046816	-0.15316	-0.008669	-0.046816	0.031938	-0.008669	0	0	0	-0.1343	0.024314	0.049264	-0.11344	0.025616	0.16667	-0.14244	-0.088629	0.057076
788	7.4158	-0.077666	-0.010237	0.16977	-0.13888	-0.24813	0.18452	-0.11809	-0.24568	0.20901	-0.046816	-0.15316	-0.008669	-0.046816	0.031938	-0.008669	0	0	0	-0.13429	0.024327	0.049312	-0.11339	0.025613	0.16671	-0.14242	-0.088619	0.057119
789	7.4252	-0.077624	-0.010229	0.16981	-0.13884	-0.24821	0.18453	-0.11804	-0.24576	0.20902	-0.046816	-0.15316	-0.008669	-0.046816	0.031938	-0.008669	0	0	0	-0.13428	0.024341	0.049359	-0.11333	0.025609	0.16675	-0.1424	-0.088609	0.057163
790	7.4346	-0.077584	-0.01022	0.16985	-0.13879	-0.24829	0.18455	-0.11797	-0.24585	0.20903	-0.046816	-0.15316	-0.008669	-0.046816	0.031938	-0.008669	0	0	0	-0.13427	0.024356	0.049405	-0.11327	0.025607	0.16679	-0.14238	-0.088597	0.057207
791	7.4441	-0.077545	-0.010209	0.1699	-0.13874	-0.24838	0.18457	-0.1179	-0.24593	0.20904	-0.046816	-0.15316	-0.008669	-0.046816	0.031938	-0.008669	0	0	0	-0.13426	0.024371	0.049449	-0.11322	0.025604	0.16683	-0.14237	-0.088583	0.057251
792	7.4535	-0.077508	-0.010197	0.16994	-0.13867	-0.24846	0.18459	-0.11782	-0.24601	0.20906	-0.046816	-0.15316	-0.008669	-0.046816	0.031938	-0.008669	0	0	0	-0.13426	0.024387	0.049493	-0.11317	0.025601	0.16687	-0.14235	-0.088569	0.057295
793	7.4629	-0.077472	-0.010183	0.16998	-0.1386	-0.24855	0.18461	-0.11774	-0.24609	0.20907	-0.046816	-0.15316	-0.008669	-0.046816	0.031938	-0.008669	0	0	0	-0.13425	0.024405	0.049535	-0.11313	0.025599	0.1669	-0.14234	-0.088553	0.057339
794	7.4723	-0.077438	-0.010167	0.17002	-0.13851	-0.24863	0.18463	-0.11764	-0.24618	0.20909	-0.046816	-0.15316	-0.008669	-0.046816	0.031938	-0.008669	0	0	0	-0.13425	0.024423	0.049577	-0.11308	0.025597	0.16694	-0.14232	-0.088535	0.057383
